<svg xmlns="http://www.w3.org/2000/svg"><defs><symbol viewBox="0 0 505.304 505.304" id="icon-doughnut"><path d="M252.849.59C113.822.59.788 113.624.788 252.651S113.822 504.714 252.85 504.714 504.911 391.68 504.911 252.651C505.305 113.624 392.271.59 252.849.59zm0 346.584c-52.382 0-94.523-42.142-94.523-94.523s42.142-94.523 94.523-94.523 94.523 42.142 94.523 94.523c.394 52.383-42.141 94.523-94.523 94.523z" fill="#e89c25"/><path d="M276.874 488.96c-143.36 0-259.545-116.185-259.545-259.545 0-44.505 11.028-86.252 30.72-122.486C18.511 147.888 1.181 198.3 1.181 252.651c0 139.028 113.034 252.062 252.062 252.062 54.745 0 105.157-17.329 146.117-46.868-36.628 19.693-78.375 31.115-122.486 31.115z" fill="#cc8921"/><path d="M252.849 138.436c-63.015 0-114.215 51.2-114.215 114.215s51.2 114.215 114.215 114.215 114.215-51.2 114.215-114.215-50.806-114.215-114.215-114.215zm0 208.738c-52.382 0-94.523-42.142-94.523-94.523s42.142-94.523 94.523-94.523 94.523 42.142 94.523 94.523c.394 52.383-42.141 94.523-94.523 94.523z" fill="#d69022"/><path d="M503.335 283.766c1.182-10.24 1.969-20.48 1.969-30.72 0-40.566-9.452-78.769-26.782-112.64C437.169 57.697 351.705.984 253.243.984 114.215.984 1.182 114.017 1.182 253.046l.394 15.36c10.634-.394 21.662-1.182 31.902-3.151 70.892-12.997 77.588-33.477 133.12-50.018 14.572-33.083 48.049-56.32 86.646-56.32 52.382 0 94.523 42.142 94.523 94.523v2.363c43.322 24.418 140.208 27.569 155.568 27.963z" fill="#f8beb6"/><path d="M105.551 150.645l-30.326 8.271c-5.514 1.575-8.665 7.877-7.089 14.178 1.575 6.302 7.483 10.24 12.997 8.665l30.326-8.271c5.514-1.575 8.665-7.877 7.089-14.178-1.576-6.302-7.483-10.24-12.997-8.665zm328.467 39.779c0-7.089-5.12-12.603-11.815-12.603s-11.815 5.514-11.815 12.603v29.932c0 7.089 5.12 12.603 11.815 12.603s11.815-5.514 11.815-12.603v-29.932z" fill="#26a6d1"/><path d="M184.714 65.181c-5.12-3.151-11.422-1.575-14.178 3.545l-14.572 28.751c-2.757 5.12-.788 12.209 4.332 15.36s11.422 1.575 14.178-3.545l14.572-28.751c2.363-5.12.788-11.816-4.332-15.36z" fill="#53bca9"/><path d="M356.825 121.501l28.751-16.542c5.12-3.151 12.209-1.182 15.36 4.332 3.151 5.514 1.182 12.209-3.938 15.36l-28.751 16.542c-5.12 3.151-12.209 1.182-15.36-4.332-3.152-5.513-1.182-12.604 3.938-15.36z" fill="#e2574c"/><path d="M288.689 89.993l-26.782-16.935c-4.726-3.151-6.695-9.846-3.938-15.36 2.757-5.514 9.058-7.089 14.178-3.938l26.782 16.935c4.726 3.151 6.695 9.846 3.938 15.36-2.756 5.119-9.058 6.695-14.178 3.938z" fill="#fff"/><path d="M366.671 263.68c.394-3.545.394-7.089.394-11.028 0-63.015-51.2-114.215-114.215-114.215-52.775 0-97.28 35.84-110.277 84.677 7.089-2.757 14.572-5.514 23.631-8.271 14.572-33.083 48.049-56.32 86.646-56.32 52.382 0 94.523 42.142 94.523 94.523v2.363c5.907 2.756 12.209 5.907 19.298 8.271zM1.575 268.012l18.117-1.182c-1.969-12.209-2.757-24.812-2.757-37.809 0-44.505 11.028-86.252 30.72-122.486-7.089 10.24-13.785 20.874-19.298 31.902l-.394 1.182-3.545 7.483-.788 1.575c-3.545 7.483-6.695 15.36-9.452 23.237l-1.182 3.545-1.969 5.908c-.394 1.575-.788 3.151-1.575 5.12L7.877 192l-1.575 6.302c-.394 1.575-.788 3.151-1.182 4.332l-1.969 10.634c-.394 1.182-.394 2.757-.394 3.938-.394 2.757-.788 5.12-.788 7.877l-.394 4.332c-.394 2.757-.394 5.514-.788 7.877 0 1.182 0 2.363-.394 3.938L0 253.046c0 3.545 0 6.695.394 10.24.788 1.181 1.181 3.151 1.181 4.726z" fill="#daa7a0"/></symbol><symbol viewBox="0 0 424.239 424.239" id="icon-smile"><path d="M129.287 245.558c3.906 0 7.578 1.521 10.34 4.283a7.97 7.97 0 0 0 5.657 2.343 7.999 7.999 0 0 0 5.657-13.657c-5.784-5.784-13.474-8.969-21.653-8.969-8.179 0-15.869 3.185-21.653 8.969-3.125 3.124-3.125 8.189 0 11.314s8.19 3.124 11.313 0a14.523 14.523 0 0 1 10.339-4.283zm144.011-7.031a7.999 7.999 0 0 0 0 11.314 8 8 0 0 0 11.313 0c5.701-5.702 14.979-5.701 20.68 0 1.562 1.562 3.609 2.343 5.657 2.343s4.095-.781 5.657-2.343a7.999 7.999 0 0 0 0-11.314c-11.938-11.939-31.366-11.94-43.307 0zm21.61 78.92c-45.65 45.65-119.927 45.65-165.578 0a8 8 0 0 0-11.313 0 7.999 7.999 0 0 0 0 11.314c25.944 25.944 60.023 38.916 94.102 38.916 34.08 0 68.159-12.972 94.103-38.916a8 8 0 0 0-11.314-11.314z"/><path d="M400.881 254.178c0-21.731-15.71-39.851-36.366-43.63V76.715a51.555 51.555 0 0 0-23.104-43.057c-13.589-9.015-30.457-11.061-45.711-5.686l-50.226-17.048C206.88-2.177 166.255-3.521 127.992 7.036 77.9 20.857 49.182 50.083 44.749 91.627a60.731 60.731 0 0 0-9.158 17.255l-3.896 11.531c-2.091 6.191.214 12.697 5.738 16.189 5.523 3.492 12.39 2.786 17.086-1.759a27.915 27.915 0 0 1 5.204-3.955v79.66c-20.656 3.779-36.366 21.898-36.366 43.63 0 22.601 16.991 41.296 38.868 44.014 5.494 30.336 19.931 58.319 42.006 80.712 28.821 29.236 67.135 45.336 107.888 45.336h.015c40.701-.004 78.965-15.856 107.745-44.635 22.481-22.481 37.073-50.749 42.386-81.445 21.755-2.831 38.616-21.469 38.616-43.982zM332.565 46.991c10.137 6.725 15.95 17.559 15.95 29.724v104.689c-24.831-3.859-43.897-25.383-43.897-51.279l-.662-87.96c9.769-2.575 19.956-.915 28.609 4.826zm-283.37 71.613l1.555-4.601a44.864 44.864 0 0 1 24.815-26.85 44.862 44.862 0 0 1 36.556.573c24.226 11.283 53.513 5.183 71.219-14.833l1.982-2.241a8.001 8.001 0 0 0-11.984-10.601l-1.982 2.241c-13.048 14.75-34.629 19.244-52.48 10.93a60.88 60.88 0 0 0-49.609-.777 60.976 60.976 0 0 0-4.233 2.033c9.299-24.791 31.805-42.249 67.215-52.019 35.161-9.702 72.535-8.451 108.084 3.615l47.623 16.165.624 41.337c-21.205 28.831-52.131 48.348-87.373 55.059-36.087 6.871-72.901-.4-103.663-20.474-15.031-9.807-33.982-9.388-48.349.443zm-9.838 135.574c0-12.863 8.609-23.747 20.366-27.21v43.362c0 3.746.135 7.471.398 11.172-11.959-3.333-20.764-14.316-20.764-27.324zM308.566 368.29c-25.758 25.758-60.005 39.945-96.433 39.949h-.014c-36.433 0-70.705-14.409-96.494-40.568-25.731-26.102-39.902-60.672-39.902-97.342V127.116a27.647 27.647 0 0 1 13.075 4.445c34.246 22.347 75.228 30.442 115.4 22.792 32.609-6.21 61.903-22.263 84.419-45.938v21.709c0 34.731 26.217 63.437 59.897 67.41v74.308c.001 36.434-14.186 70.687-39.948 96.448zm55.64-86.814c.198-3.194.309-6.405.309-9.633v-44.875c11.757 3.463 20.366 14.347 20.366 27.21 0 12.975-8.76 23.936-20.675 27.298z"/></symbol></defs></svg>