
<svg version="1.1" id="Layer_1" xmlns="http://www.w3.org/2000/svg" xmlns:xlink="http://www.w3.org/1999/xlink" x="0px" y="0px"
	 viewBox="0 0 505.304 505.304" style="enable-background:new 0 0 505.304 505.304;" xml:space="preserve">
<path style="fill:#E89C25;" d="M252.849,0.59C113.822,0.59,0.788,113.624,0.788,252.651S113.822,504.714,252.85,504.714
	S504.911,391.68,504.911,252.651C505.305,113.624,392.271,0.59,252.849,0.59z M252.849,347.174
	c-52.382,0-94.523-42.142-94.523-94.523s42.142-94.523,94.523-94.523s94.523,42.142,94.523,94.523
	C347.766,305.034,305.231,347.174,252.849,347.174z"/>
<path style="fill:#CC8921;" d="M276.874,488.96c-143.36,0-259.545-116.185-259.545-259.545c0-44.505,11.028-86.252,30.72-122.486
	C18.511,147.888,1.181,198.3,1.181,252.651c0,139.028,113.034,252.062,252.062,252.062c54.745,0,105.157-17.329,146.117-46.868
	C362.732,477.538,320.985,488.96,276.874,488.96z"/>
<path style="fill:#D69022;" d="M252.849,138.436c-63.015,0-114.215,51.2-114.215,114.215s51.2,114.215,114.215,114.215
	s114.215-51.2,114.215-114.215S316.258,138.436,252.849,138.436z M252.849,347.174c-52.382,0-94.523-42.142-94.523-94.523
	s42.142-94.523,94.523-94.523s94.523,42.142,94.523,94.523C347.766,305.034,305.231,347.174,252.849,347.174z"/>
<path style="fill:#F8BEB6;" d="M503.335,283.766c1.182-10.24,1.969-20.48,1.969-30.72c0-40.566-9.452-78.769-26.782-112.64
	C437.169,57.697,351.705,0.984,253.243,0.984C114.215,0.984,1.182,114.017,1.182,253.046l0.394,15.36
	c10.634-0.394,21.662-1.182,31.902-3.151c70.892-12.997,77.588-33.477,133.12-50.018c14.572-33.083,48.049-56.32,86.646-56.32
	c52.382,0,94.523,42.142,94.523,94.523v2.363C391.089,280.221,487.975,283.372,503.335,283.766z"/>
<path style="fill:#26A6D1;" d="M105.551,150.645l-30.326,8.271c-5.514,1.575-8.665,7.877-7.089,14.178
	c1.575,6.302,7.483,10.24,12.997,8.665l30.326-8.271c5.514-1.575,8.665-7.877,7.089-14.178
	C116.972,153.008,111.065,149.07,105.551,150.645z M434.018,190.424c0-7.089-5.12-12.603-11.815-12.603s-11.815,5.514-11.815,12.603
	v29.932c0,7.089,5.12,12.603,11.815,12.603s11.815-5.514,11.815-12.603V190.424z"/>
<path style="fill:#53BCA9;" d="M184.714,65.181c-5.12-3.151-11.422-1.575-14.178,3.545l-14.572,28.751
	c-2.757,5.12-0.788,12.209,4.332,15.36s11.422,1.575,14.178-3.545l14.572-28.751C191.409,75.421,189.834,68.725,184.714,65.181z"/>
<path style="fill:#E2574C;" d="M356.825,121.501l28.751-16.542c5.12-3.151,12.209-1.182,15.36,4.332
	c3.151,5.514,1.182,12.209-3.938,15.36l-28.751,16.542c-5.12,3.151-12.209,1.182-15.36-4.332
	C349.735,131.348,351.705,124.257,356.825,121.501z"/>
<path style="fill:#FFFFFF;" d="M288.689,89.993l-26.782-16.935c-4.726-3.151-6.695-9.846-3.938-15.36
	c2.757-5.514,9.058-7.089,14.178-3.938l26.782,16.935c4.726,3.151,6.695,9.846,3.938,15.36
	C300.111,91.174,293.809,92.75,288.689,89.993z"/>
<path style="fill:#DAA7A0;" d="M366.671,263.68c0.394-3.545,0.394-7.089,0.394-11.028c0-63.015-51.2-114.215-114.215-114.215
	c-52.775,0-97.28,35.84-110.277,84.677c7.089-2.757,14.572-5.514,23.631-8.271c14.572-33.083,48.049-56.32,86.646-56.32
	c52.382,0,94.523,42.142,94.523,94.523v2.363C353.28,258.165,359.582,261.316,366.671,263.68z M1.575,268.012l18.117-1.182
	c-1.969-12.209-2.757-24.812-2.757-37.809c0-44.505,11.028-86.252,30.72-122.486c-7.089,10.24-13.785,20.874-19.298,31.902
	l-0.394,1.182l-3.545,7.483l-0.788,1.575c-3.545,7.483-6.695,15.36-9.452,23.237l-1.182,3.545l-1.969,5.908
	c-0.394,1.575-0.788,3.151-1.575,5.12l-1.575,5.513l-1.575,6.302c-0.394,1.575-0.788,3.151-1.182,4.332l-1.969,10.634
	c-0.394,1.182-0.394,2.757-0.394,3.938c-0.394,2.757-0.788,5.12-0.788,7.877l-0.394,4.332c-0.394,2.757-0.394,5.514-0.788,7.877
	c0,1.182,0,2.363-0.394,3.938L0,253.046c0,3.545,0,6.695,0.394,10.24C1.182,264.467,1.575,266.437,1.575,268.012z"/>
</svg>