<?xml version="1.0" encoding="iso-8859-1"?>
<!-- Generator: Adobe Illustrator 18.0.0, SVG Export Plug-In . SVG Version: 6.00 Build 0)  -->
<!DOCTYPE svg PUBLIC "-//W3C//DTD SVG 1.1//EN" "http://www.w3.org/Graphics/SVG/1.1/DTD/svg11.dtd">
<svg version="1.1" id="Capa_1" xmlns="http://www.w3.org/2000/svg" xmlns:xlink="http://www.w3.org/1999/xlink" x="0px" y="0px"
	 viewBox="0 0 424.239 424.239" style="enable-background:new 0 0 424.239 424.239;" xml:space="preserve">
<g>
	<path d="M129.287,245.558c3.906,0,7.578,1.521,10.34,4.283c1.562,1.562,3.609,2.344,5.657,2.343c2.047,0,4.095-0.781,5.657-2.343
		c3.125-3.124,3.125-8.189,0-11.314c-5.784-5.784-13.474-8.969-21.653-8.969c-8.179,0-15.869,3.185-21.653,8.969
		c-3.125,3.124-3.125,8.189,0,11.314s8.19,3.124,11.313,0C121.709,247.079,125.381,245.558,129.287,245.558z"/>
	<path d="M273.298,238.527c-3.125,3.124-3.125,8.189,0,11.314c3.124,3.124,8.189,3.124,11.313,0c5.701-5.702,14.979-5.701,20.68,0
		c1.562,1.562,3.609,2.343,5.657,2.343s4.095-0.781,5.657-2.343c3.125-3.124,3.125-8.189,0-11.314
		C304.667,226.588,285.239,226.587,273.298,238.527z"/>
	<path d="M294.908,317.447c-45.65,45.65-119.927,45.65-165.578,0c-3.124-3.124-8.189-3.124-11.313,0
		c-3.125,3.124-3.125,8.19,0,11.314c25.944,25.944,60.023,38.916,94.102,38.916c34.08,0,68.159-12.972,94.103-38.916
		c3.125-3.124,3.125-8.189,0-11.314C303.098,314.323,298.032,314.323,294.908,317.447z"/>
	<path d="M400.881,254.178c0-21.731-15.71-39.851-36.366-43.63V76.715c0-17.362-8.637-33.458-23.104-43.057
		c-13.589-9.015-30.457-11.061-45.711-5.686l-50.226-17.048C206.88-2.177,166.255-3.521,127.992,7.036
		C77.9,20.857,49.182,50.083,44.749,91.627c-3.923,5.174-7.04,10.985-9.158,17.255l-3.896,11.531
		c-2.091,6.191,0.214,12.697,5.738,16.189c5.523,3.492,12.39,2.786,17.086-1.759c1.604-1.553,3.358-2.861,5.204-3.955v79.66
		c-20.656,3.779-36.366,21.898-36.366,43.63c0,22.601,16.991,41.296,38.868,44.014c5.494,30.336,19.931,58.319,42.006,80.712
		c28.821,29.236,67.135,45.336,107.888,45.336c0.005,0,0.01,0,0.015,0c40.701-0.004,78.965-15.856,107.745-44.635
		c22.481-22.481,37.073-50.749,42.386-81.445C384.02,295.329,400.881,276.691,400.881,254.178z M332.565,46.991
		c10.137,6.725,15.95,17.559,15.95,29.724v104.689c-24.831-3.859-43.897-25.383-43.897-51.279l-0.662-87.96
		C313.725,39.59,323.912,41.25,332.565,46.991z M49.195,118.604l1.555-4.601c4.073-12.055,13.118-21.842,24.815-26.85
		c11.696-5.008,25.021-4.8,36.556,0.573c24.226,11.283,53.513,5.183,71.219-14.833l1.982-2.241
		c2.928-3.309,2.618-8.365-0.691-11.292c-3.31-2.927-8.366-2.618-11.293,0.691l-1.982,2.241
		c-13.048,14.75-34.629,19.244-52.48,10.93c-15.653-7.291-33.736-7.574-49.609-0.777c-1.445,0.619-2.85,1.31-4.233,2.033
		c9.299-24.791,31.805-42.249,67.215-52.019c35.161-9.702,72.535-8.451,108.084,3.615l47.623,16.165l0.624,41.337
		c-21.205,28.831-52.131,48.348-87.373,55.059c-36.087,6.871-72.901-0.4-103.663-20.474
		C82.513,108.354,63.562,108.773,49.195,118.604z M39.357,254.178c0-12.863,8.609-23.747,20.366-27.21v43.362
		c0,3.746,0.135,7.471,0.398,11.172C48.162,278.169,39.357,267.186,39.357,254.178z M308.566,368.29
		c-25.758,25.758-60.005,39.945-96.433,39.949c-0.006,0-0.007,0-0.014,0c-36.433,0-70.705-14.409-96.494-40.568
		c-25.731-26.102-39.902-60.672-39.902-97.342V127.116c4.531,0.338,9.027,1.804,13.075,4.445
		c34.246,22.347,75.228,30.442,115.4,22.792c32.609-6.21,61.903-22.263,84.419-45.938v21.709c0,34.731,26.217,63.437,59.897,67.41
		v74.308C348.515,308.276,334.328,342.529,308.566,368.29z M364.206,281.476c0.198-3.194,0.309-6.405,0.309-9.633v-44.875
		c11.757,3.463,20.366,14.347,20.366,27.21C384.881,267.153,376.121,278.114,364.206,281.476z"/>
</g>
<g>
</g>
<g>
</g>
<g>
</g>
<g>
</g>
<g>
</g>
<g>
</g>
<g>
</g>
<g>
</g>
<g>
</g>
<g>
</g>
<g>
</g>
<g>
</g>
<g>
</g>
<g>
</g>
<g>
</g>
</svg>
